<svg width="135" height="35" viewBox="0 0 135 35" fill="none" xmlns="http://www.w3.org/2000/svg">
<path d="M49.591 16.0395C49.5183 7.15023 38.5082 2.90587e-06 24.9833 2.90587e-06H24.6622C20.2839 -0.00178389 15.9445 0.820463 11.8705 2.42381C5.02326 5.15665 0.357427 10.0042 0.0302124 15.5608C0.0302124 15.7184 0.0302124 15.8699 0.0302124 16.0214C0.0302124 16.1728 0.0302124 16.1607 0.0302124 16.2274V16.3001C0.0302124 16.3425 0.0302124 16.391 0.0302124 16.4334V17.1727C0.0302124 17.1727 0.0302124 17.2333 0.0302124 17.2696V17.3787C0.0302124 17.5059 0.0302124 17.6332 0.0302124 17.7544C0.0302124 17.8756 0.0302124 17.9846 0.0302124 18.0937C0.296831 22.5232 2.6964 26.5407 6.84717 29.4796C11.3615 32.6729 17.4817 34.3272 24.5591 34.3272H24.9409C32.2123 34.2666 38.4536 32.479 42.9801 29.1584C47.2823 25.9954 49.6455 21.6567 49.597 16.9424L49.591 16.0395Z" fill="#2D3277"/>
<path d="M22.3721 22.9535C22.5938 22.861 22.8293 22.8057 23.069 22.7899C23.3312 22.7414 23.6009 22.7513 23.859 22.8187C24.1171 22.8861 24.3571 23.0095 24.5622 23.1801C24.7672 23.3507 24.9322 23.5643 25.0454 23.8058C25.1586 24.0473 25.2173 24.3108 25.2173 24.5775C25.2173 24.8442 25.1586 25.1077 25.0454 25.3492C24.9322 25.5907 24.7672 25.8042 24.5622 25.9749C24.3571 26.1455 24.1171 26.2689 23.859 26.3363C23.6009 26.4037 23.3312 26.4135 23.069 26.365C22.6109 26.3686 22.1694 26.1944 21.8371 25.8791C21.5049 25.5639 21.3078 25.132 21.2875 24.6745C21.2875 24.2684 21.0511 24.2079 20.9239 24.2079C20.8597 24.212 20.7971 24.2291 20.7398 24.2583C20.6825 24.2875 20.6317 24.328 20.5906 24.3775C20.3756 24.6082 20.0811 24.7489 19.7666 24.7714C19.5703 24.7708 19.3764 24.7296 19.1969 24.6502C18.8907 24.569 18.6247 24.379 18.4485 24.1158C18.2723 23.8525 18.198 23.5342 18.2396 23.2201C18.2555 23.1581 18.2561 23.0932 18.2413 23.0309C18.2265 22.9686 18.1968 22.9108 18.1547 22.8626C18.0984 22.8124 18.0291 22.7787 17.9547 22.7657C17.8974 22.7588 17.8392 22.7638 17.784 22.7805C17.7287 22.7972 17.6775 22.8251 17.6336 22.8626C17.3822 23.0777 17.0758 23.2183 16.7488 23.2687C16.59 23.2634 16.4328 23.2348 16.2823 23.1838C15.8503 23.0478 15.4834 22.7579 15.251 22.3691C15.0187 21.9805 14.9371 21.52 15.0219 21.0751C15.04 21.0126 15.0386 20.9462 15.018 20.8845C14.9975 20.8228 14.9587 20.7688 14.9067 20.7297C14.7492 20.6327 14.5977 20.7782 14.5008 20.8751C14.391 20.9829 14.2581 21.064 14.112 21.1123C13.9661 21.1607 13.8109 21.1749 13.6586 21.1539C13.294 21.1277 12.9517 20.969 12.696 20.7078C12.4404 20.4466 12.2891 20.101 12.2709 19.7359C12.2693 19.5577 12.3028 19.3809 12.3696 19.2156C12.4363 19.0503 12.535 18.8997 12.6598 18.7726C12.7848 18.6454 12.9335 18.5441 13.0976 18.4744C13.2617 18.4047 13.4379 18.3681 13.6161 18.3665C13.9286 18.3265 14.2445 18.406 14.5007 18.5891C14.757 18.7723 14.9345 19.0456 14.9977 19.3541C14.9977 19.3541 14.9977 19.4087 14.9977 19.439C14.9977 19.4693 15.0341 19.7117 15.1734 19.7541C15.3128 19.7965 15.4279 19.6571 15.4946 19.5541C15.5071 19.5295 15.5235 19.507 15.543 19.4875L15.5855 19.433C15.7546 19.189 15.9879 18.9967 16.2595 18.877C16.5311 18.7571 16.8304 18.7148 17.1246 18.7543C17.3295 18.7591 17.5331 18.7897 17.7305 18.8452C18.0177 18.9475 18.2636 19.1407 18.431 19.3955C18.5983 19.6504 18.6779 19.9528 18.6576 20.257C18.656 20.346 18.6894 20.4321 18.7506 20.4967C18.8118 20.5613 18.8959 20.5992 18.9849 20.6024C19.0396 20.5984 19.0931 20.5835 19.1419 20.5585C19.1908 20.5335 19.2342 20.499 19.2697 20.457C19.398 20.2986 19.557 20.1675 19.7371 20.0718C19.9172 19.976 20.1147 19.9174 20.3179 19.8996C20.5835 19.9017 20.8456 19.9596 21.0875 20.0692C22.3902 20.6145 21.8025 22.2809 21.7964 22.2991C21.7177 22.493 21.5905 22.8203 21.8631 22.996L21.9176 23.0262H22.0267C22.127 23.0181 22.2252 22.9935 22.3176 22.9535H22.3721Z" fill="white"/>
<path d="M48.2457 14.1187C44.766 14.9306 41.3699 16.0667 38.1021 17.512C35.7571 15.5002 30.3338 10.8466 28.8674 9.78618C28.2797 9.30281 27.6137 8.92366 26.898 8.66513C26.5785 8.56497 26.2451 8.51589 25.9104 8.5197C25.498 8.53308 25.0897 8.60657 24.6985 8.73784C23.6538 9.17622 22.6925 9.79114 21.8565 10.5557L21.802 10.5981C20.9718 11.2707 20.1175 11.9616 19.4873 12.107C19.2073 12.174 18.9206 12.2086 18.6328 12.21C18.0927 12.2517 17.5561 12.0944 17.124 11.7676C17.1412 11.7302 17.1636 11.6955 17.1907 11.6646L19.2327 9.42261C20.8143 7.8168 22.3049 6.30192 25.7589 6.19284H25.9286C27.5032 6.23703 29.0537 6.5912 30.4914 7.23508C32.478 8.2003 34.6572 8.70368 36.866 8.70755C39.2321 8.65171 41.5579 8.08318 43.6829 7.04118C46.034 9.07112 47.6701 11.4828 48.2457 14.1187Z" fill="white"/>
<path d="M24.6743 1.1029H24.9833C28.2487 1.0934 31.4994 1.53799 34.6422 2.42388L34.8483 2.48447L35.2724 2.61778C37.8603 3.41275 40.3047 4.61555 42.5136 6.18078C40.7177 6.98624 38.7791 7.42504 36.8115 7.47145H36.7328C34.7408 7.45789 32.7774 6.99605 30.9883 6.12019C29.3989 5.40995 27.6867 5.01484 25.9468 4.95676H25.6802C23.5724 4.94342 21.529 5.68255 19.9176 7.04123C18.9469 7.10443 17.988 7.28968 17.0635 7.59264C16.4316 7.8104 15.7733 7.94287 15.1063 7.98651H14.4277H14.3125C11.9244 7.58732 9.57919 6.96448 7.30774 6.12624C11.7797 2.95711 18.0816 1.13926 24.6743 1.1029Z" fill="#FFF159"/>
<path d="M6.18636 6.97452C9.32519 8.22884 12.9609 9.11959 14.0638 9.18018H14.3061C14.5606 9.18018 14.8212 9.18018 15.0817 9.21048C15.8678 9.16821 16.6444 9.0194 17.3904 8.76813C17.6995 8.67724 17.9964 8.59241 18.3054 8.51363L18.263 8.56211L16.1907 10.8405C16.0121 11.0053 15.8871 11.2198 15.832 11.4565C15.7768 11.6931 15.7941 11.9409 15.8816 12.1676C16.0125 12.4468 16.2234 12.6808 16.4876 12.8401C17.1921 13.2391 17.993 13.4362 18.8023 13.4098C19.1122 13.4104 19.4212 13.3759 19.7233 13.3067C20.6262 13.0947 21.5412 12.3493 22.541 11.5495C23.3271 10.8568 24.2271 10.3054 25.2012 9.91944C25.4366 9.85682 25.6786 9.82222 25.9222 9.81641H26.104C26.8454 9.93585 27.5383 10.2613 28.1037 10.7557C29.7458 11.9676 36.7627 18.0271 37.5747 18.6936C37.7084 18.8204 37.8142 18.9738 37.8852 19.1439C37.9561 19.314 37.9907 19.497 37.9867 19.6813C37.973 19.8569 37.9174 20.0266 37.8247 20.1763C37.7319 20.3261 37.6046 20.4513 37.4534 20.5418C37.1829 20.7257 36.8655 20.8288 36.5385 20.8387C36.2649 20.8382 35.9966 20.7628 35.7628 20.6205L35.569 20.4508C34.9206 19.8449 32.9513 18.1059 32.1393 17.4211C31.9957 17.2649 31.7992 17.1677 31.5879 17.1484C31.5272 17.1478 31.4672 17.1611 31.4126 17.1873C31.3579 17.2136 31.3101 17.2521 31.2728 17.2999C31.091 17.5302 31.1879 17.8513 31.5091 18.118L34.5873 21.1477C34.7862 21.3395 34.9179 21.5902 34.963 21.8627C34.9744 22.0938 34.9194 22.3233 34.8044 22.5241C34.6896 22.7248 34.5196 22.8886 34.3147 22.9959C34.0247 23.2064 33.679 23.3266 33.3208 23.3413C33.0548 23.3414 32.7942 23.2658 32.5695 23.1231L32.0968 22.6687C31.3031 21.8991 30.479 21.1053 29.873 20.6084C29.7263 20.4609 29.5342 20.3669 29.3277 20.3418C29.2705 20.3407 29.2138 20.352 29.1615 20.3751C29.1091 20.3982 29.0625 20.4323 29.0247 20.4751C28.9398 20.5721 28.8308 20.7902 29.0731 21.081C29.1231 21.1457 29.1778 21.2065 29.2367 21.2629L31.4788 23.7412C31.5882 23.8574 31.6535 24.0083 31.6634 24.1677C31.6734 24.3269 31.6273 24.4848 31.5333 24.6138L31.4667 24.7047C31.4 24.7774 31.3333 24.838 31.2728 24.8925C30.9881 25.1052 30.6403 25.2161 30.285 25.2076C30.1945 25.2173 30.1031 25.2173 30.0124 25.2076C29.7579 25.1652 29.6851 25.1046 29.6609 25.0743L29.5882 25.0016C28.9525 24.3373 28.2808 23.7082 27.5765 23.1171C27.4375 22.9735 27.2536 22.8816 27.0553 22.8565C26.9967 22.8583 26.9389 22.8722 26.8858 22.8973C26.8326 22.9223 26.7852 22.9579 26.7463 23.002C26.5585 23.2079 26.6433 23.517 26.9584 23.8139L28.649 25.6924C28.6066 25.7591 28.4188 25.965 27.7704 26.0499C27.6877 26.0559 27.6046 26.0559 27.5219 26.0499C26.9456 26.0181 26.3831 25.8609 25.8737 25.5894C26.0192 25.2294 26.0934 24.8445 26.0919 24.4562C26.084 23.6755 25.7708 22.9288 25.2193 22.3761C24.6676 21.8234 23.9217 21.5086 23.1409 21.4992C23.1733 20.9681 23.0411 20.44 22.7624 19.9867C22.4837 19.5335 22.0721 19.1772 21.5836 18.9663C21.2008 18.8002 20.7889 18.7117 20.3717 18.7058C20.102 18.7051 19.8339 18.7481 19.5779 18.833C19.2592 18.2977 18.7544 17.8986 18.16 17.712C17.8187 17.5866 17.4568 17.527 17.0935 17.5363C16.5414 17.5333 16.0011 17.6958 15.5423 18.0028C15.3061 17.7405 15.0173 17.531 14.6947 17.3879C14.372 17.245 14.0228 17.1716 13.6699 17.1727C13.0409 17.1754 12.4358 17.4132 11.9732 17.8393C11.2521 17.3302 8.84044 15.9244 2.78698 14.6035C2.5143 14.5428 1.92047 14.3792 1.42358 14.2399C1.93259 11.5979 3.59289 9.08929 6.18636 6.97452Z" fill="white"/>
<path d="M48.4517 17.0152C48.4517 17.2131 48.4275 17.4152 48.379 17.6211C47.8458 21.0569 45.5128 24.2867 41.665 26.7649C37.2113 29.6674 31.2669 31.2975 24.9347 31.352H24.6136C11.6887 31.352 1.17536 24.6866 1.1087 16.4153C1.1087 16.1548 1.1087 15.8639 1.14506 15.5428L2.45998 15.8457C8.42254 17.1182 10.6524 18.4635 11.2099 18.8755C11.1102 19.1534 11.061 19.4468 11.0645 19.7419C11.0692 20.4154 11.3402 21.0596 11.818 21.5342C12.296 22.0086 12.9421 22.2749 13.6156 22.2749C13.7305 22.2839 13.846 22.2839 13.961 22.2749C14.0813 22.7454 14.3165 23.1787 14.6453 23.5362C14.9742 23.8936 15.3865 24.1639 15.8454 24.3229C16.2807 24.4947 16.7563 24.5368 17.2149 24.4442C17.5316 25.0748 18.0816 25.5572 18.7479 25.7894C19.0724 25.9164 19.4176 25.9821 19.766 25.9832C19.9724 25.9696 20.1761 25.9288 20.3719 25.8621C20.6135 26.3696 20.9937 26.7982 21.4688 27.0985C21.9439 27.3988 22.4943 27.5583 23.0563 27.5587C23.8208 27.5465 24.5525 27.2456 25.1044 26.7165C25.8343 27.1122 26.6442 27.338 27.4736 27.3769C27.6015 27.3764 27.7291 27.3662 27.8554 27.3467C28.1878 27.3351 28.5138 27.2517 28.8109 27.1021C29.108 26.9525 29.3691 26.7403 29.5763 26.4801L29.6308 26.4014C29.8567 26.4589 30.0886 26.4895 30.3217 26.4923C30.9163 26.4722 31.4884 26.2596 31.9517 25.8863C32.4039 25.5704 32.7368 25.1115 32.897 24.5836H33.2908C33.8879 24.57 34.4676 24.3802 34.9572 24.0382C35.3095 23.832 35.6049 23.5412 35.8166 23.1919C36.0282 22.8428 36.1493 22.4463 36.1691 22.0385C36.2942 22.0476 36.4197 22.0476 36.5448 22.0385C37.1032 22.0284 37.6463 21.8557 38.1082 21.5417C38.4202 21.346 38.6817 21.0793 38.8713 20.7634C39.0608 20.4475 39.1731 20.0912 39.1988 19.7238C39.2271 19.2749 39.1327 18.8267 38.9261 18.4271C41.9974 17.1663 45.1644 16.1532 48.3972 15.3973C48.3972 15.6639 48.4457 15.9245 48.4457 16.1972C48.4457 16.4699 48.4699 16.7607 48.4517 17.0152Z" fill="#FFF159"/>
<path d="M133.686 5.93835C132.797 4.8234 131.443 4.26593 129.625 4.26593C127.808 4.26593 126.455 4.8234 125.566 5.93835C124.697 7.08044 124.227 8.47564 124.227 9.91035C124.227 11.3451 124.697 12.7403 125.566 13.8823C126.455 14.9812 127.808 15.5306 129.625 15.5306C131.443 15.5306 132.797 14.9751 133.686 13.8643C134.554 12.7221 135.023 11.3269 135.023 9.89216C135.023 8.45746 134.554 7.06226 133.686 5.92018V5.93835ZM131.48 12.3493C131.249 12.6192 130.963 12.8358 130.641 12.9844C130.319 13.1329 129.968 13.2099 129.613 13.2099C129.259 13.2099 128.908 13.1329 128.586 12.9844C128.263 12.8358 127.977 12.6192 127.747 12.3493C127.322 11.6046 127.099 10.7619 127.099 9.90435C127.099 9.04678 127.322 8.20406 127.747 7.45929C127.977 7.18947 128.263 6.97281 128.586 6.82426C128.908 6.67569 129.259 6.59875 129.613 6.59875C129.968 6.59875 130.319 6.67569 130.641 6.82426C130.963 6.97281 131.249 7.18947 131.48 7.45929C131.904 8.20406 132.128 9.04678 132.128 9.90435C132.128 10.7619 131.904 11.6046 131.48 12.3493Z" fill="#2D3277"/>
<path d="M110.865 5.00508C109.901 4.53071 108.837 4.29386 107.763 4.3143C105.945 4.3143 104.733 4.78087 103.97 5.71404C103.485 6.38173 103.212 7.17987 103.188 8.00454H105.866C105.908 7.64994 106.043 7.31301 106.26 7.02895C106.446 6.85132 106.667 6.71599 106.91 6.6323C107.153 6.5486 107.41 6.51855 107.665 6.54419C108.129 6.51647 108.593 6.60172 109.017 6.79264C109.17 6.88314 109.295 7.01569 109.375 7.1746C109.456 7.33352 109.49 7.51217 109.472 7.68944C109.469 7.86854 109.409 8.04203 109.299 8.18401C109.191 8.32598 109.038 8.42883 108.865 8.47718C108.508 8.60729 108.135 8.6888 107.756 8.71955L106.806 8.84075C105.962 8.91372 105.14 9.14391 104.381 9.5194C103.888 9.80112 103.484 10.2158 103.215 10.7161C102.946 11.2165 102.823 11.7823 102.861 12.3492C102.835 12.7839 102.907 13.2187 103.071 13.6223C103.234 14.0258 103.485 14.3878 103.806 14.6821C104.493 15.23 105.351 15.5194 106.23 15.5002C112.289 15.7728 112.21 12.3129 112.289 11.5917V7.61066C112.223 6.33816 111.774 5.4656 110.865 5.00508ZM109.465 11.0646C109.498 11.4248 109.442 11.7874 109.302 12.1211C109.163 12.4547 108.944 12.7493 108.666 12.9794C108.176 13.3244 107.592 13.5087 106.993 13.5066C106.643 13.5147 106.301 13.4036 106.024 13.1915C105.88 13.0638 105.769 12.9038 105.699 12.7246C105.63 12.5456 105.604 12.3525 105.623 12.1614C105.612 11.9238 105.668 11.6878 105.783 11.48C105.898 11.2722 106.07 11.1011 106.278 10.9858C106.68 10.7955 107.109 10.6688 107.551 10.6101L108.157 10.489C108.41 10.4483 108.659 10.3855 108.902 10.3011C109.089 10.2295 109.27 10.1402 109.441 10.0345L109.465 11.0646Z" fill="#2D3277"/>
<path d="M97.0735 6.68975C97.3604 6.66745 97.6482 6.7135 97.9135 6.82411C98.1797 6.93472 98.4151 7.10672 98.6007 7.32599C98.8247 7.64205 98.9682 8.00819 99.0188 8.39246H102.007C101.843 6.88971 101.316 5.83535 100.425 5.24152C99.3938 4.60833 98.1976 4.2981 96.9891 4.35077C96.2738 4.31152 95.5585 4.42648 94.891 4.68785C94.2244 4.94921 93.6212 5.35088 93.1231 5.86565C92.1267 7.04602 91.6252 8.5658 91.7233 10.1073C91.658 11.5242 92.1078 12.9169 92.9897 14.0278C93.8382 15.0397 95.1526 15.5427 96.9469 15.5427C97.7213 15.5918 98.4957 15.4521 99.2035 15.1355C99.9122 14.8188 100.533 14.3347 101.013 13.7248C101.558 13.0392 101.89 12.2094 101.97 11.3374H99.001C98.9626 11.8318 98.7788 12.304 98.4732 12.6947C98.2866 12.8859 98.0579 13.0321 97.8066 13.1224C97.5544 13.2127 97.2854 13.2446 97.0191 13.2158C96.5926 13.2446 96.1688 13.1313 95.8135 12.8933C95.4582 12.6554 95.1919 12.3064 95.056 11.9009C94.8413 11.3031 94.7419 10.6696 94.7654 10.0346C94.7419 9.36991 94.8404 8.70658 95.056 8.07737C95.191 7.65514 95.4619 7.28971 95.8276 7.03853C96.1932 6.78736 96.631 6.66467 97.0735 6.68975Z" fill="#2D3277"/>
<path d="M90.9232 4.35083C84.791 4.35083 85.1545 9.80439 85.1545 9.80439V15.3186H87.9358V10.1438C87.8971 9.50176 88.0049 8.85944 88.251 8.26528C88.6388 7.53813 89.3781 7.17457 90.4929 7.17457H90.8262C90.9595 7.17457 91.111 7.17456 91.2928 7.21698V4.38113H91.0505L90.9232 4.35083Z" fill="#2D3277"/>
<path d="M80.7004 12.41C80.594 12.5689 80.4655 12.7117 80.3187 12.8342C79.8625 13.1471 79.3129 13.2947 78.7613 13.2522C78.2446 13.2831 77.7303 13.1609 77.2827 12.9008C76.9205 12.6603 76.6264 12.3304 76.429 11.9429C76.2315 11.5554 76.1374 11.1235 76.1557 10.6891H83.8573C83.8784 9.98877 83.846 9.28785 83.7604 8.59247C83.6516 7.80826 83.3633 7.05972 82.9182 6.40498C82.4706 5.72389 81.8407 5.1822 81.1002 4.84163C80.3159 4.50487 79.4694 4.33761 78.6159 4.35081C77.9187 4.32269 77.2233 4.43837 76.5728 4.69065C75.9222 4.94292 75.3307 5.32641 74.8347 5.81721C73.8652 6.79279 73.3805 8.19254 73.3805 10.0286C73.3805 11.9797 73.9178 13.3937 74.9923 14.2702C76.0405 15.1288 77.358 15.5901 78.7128 15.5731C79.4484 15.616 80.1846 15.5002 80.8715 15.2336C81.5584 14.967 82.18 14.5558 82.6939 14.0279C83.1463 13.5831 83.4779 13.0305 83.6574 12.422L80.7004 12.41ZM76.9617 7.22908C77.1798 7.01999 77.4388 6.85825 77.7224 6.75397C78.0061 6.6497 78.3082 6.60516 78.6099 6.62313C79.2088 6.60345 79.7938 6.80637 80.252 7.19273C80.4807 7.40628 80.6637 7.66412 80.7897 7.95058C80.9158 8.23704 80.9823 8.54614 80.9851 8.85909H76.2223C76.2901 8.25122 76.549 7.68052 76.9617 7.22908Z" fill="#2D3277"/>
<path d="M72.254 15.2942H69.715V8.89534C69.7435 8.63832 69.7158 8.37817 69.6336 8.13297C69.5515 7.88776 69.417 7.66338 69.2393 7.47541C69.0618 7.28744 68.8454 7.14039 68.6052 7.04446C68.3651 6.94854 68.1069 6.90604 67.8487 6.91993C67.5893 6.91197 67.3311 6.95802 67.0906 7.05512C66.8499 7.15223 66.6321 7.29828 66.4509 7.48402C66.2698 7.66976 66.1292 7.89112 66.038 8.13408C65.947 8.37703 65.9074 8.63627 65.9218 8.89534V15.2942H63.395V8.89534C63.4253 8.63952 63.3994 8.38014 63.3191 8.13536C63.2388 7.89057 63.1059 7.66627 62.9299 7.47814C62.7539 7.29001 62.5389 7.14259 62.3 7.04617C62.0612 6.94976 61.8041 6.90667 61.5468 6.91993C61.287 6.91011 61.0279 6.95487 60.7864 7.05132C60.5449 7.14777 60.3264 7.29378 60.1448 7.47991C59.9632 7.66605 59.8227 7.88818 59.7323 8.13198C59.6419 8.37578 59.6036 8.63583 59.6198 8.89534V15.2942H57.0749V8.95593C57.0749 6.31398 58.826 4.31435 61.5468 4.31435C62.1511 4.29895 62.7506 4.42391 63.2984 4.6794C63.8462 4.9349 64.3273 5.31397 64.7038 5.78681C65.0879 5.32103 65.5713 4.94706 66.1186 4.69228C66.6658 4.43751 67.2632 4.30838 67.8669 4.31435C70.6361 4.31435 72.2721 6.22915 72.2721 8.95593L72.254 15.2942Z" fill="#2D3277"/>
<path d="M123.383 1.0058C123.383 1.0058 120.584 0.708885 120.584 2.96303V5.93825C120.287 5.45262 119.87 5.0519 119.373 4.77482C118.851 4.48474 118.261 4.33838 117.664 4.35066C117.025 4.32833 116.391 4.4572 115.811 4.72678C115.232 4.99637 114.725 5.39902 114.331 5.90189C113.452 7.1665 113.024 8.69091 113.119 10.2284C113.059 11.6224 113.509 12.9905 114.385 14.0762C115.228 15.076 116.882 15.5123 118.348 15.5123C123.474 15.5123 123.414 11.1191 123.414 11.1191L123.383 1.0058ZM120.052 12.3734C119.849 12.6634 119.575 12.8961 119.257 13.049C118.939 13.2019 118.586 13.2698 118.233 13.246C117.89 13.267 117.547 13.1967 117.239 13.0424C116.932 12.8882 116.671 12.6552 116.483 12.3674C116.065 11.6301 115.866 10.7897 115.906 9.94359C115.879 9.14769 116.077 8.36022 116.476 7.67127C116.66 7.37044 116.922 7.1256 117.235 6.96326C117.548 6.80092 117.9 6.72725 118.252 6.75022C118.764 6.74285 119.262 6.92396 119.651 7.25922C120.306 7.81064 120.627 8.81046 120.627 10.1011C120.671 10.9013 120.466 11.6954 120.039 12.3734H120.052Z" fill="#2D3277"/>
<path d="M73.8473 20.766H75.9439L72.1567 31.4732H69.3027L65.5518 20.766H68.5331L70.6661 28.2981L72.5627 21.7416C72.6279 21.4539 72.7924 21.1984 73.0274 21.02C73.2623 20.8415 73.5527 20.7516 73.8473 20.766ZM81.9064 20.4813H82.1428V23.3413L81.6762 23.3049C81.5369 23.3049 81.4277 23.3049 81.3429 23.3049C80.2219 23.3049 79.4644 23.6685 79.0827 24.4017C78.8288 25.0024 78.7169 25.6535 78.7555 26.3045V31.4368H75.9499V25.9833C75.9499 25.9833 75.5803 20.4994 81.7731 20.4994L81.9064 20.4813ZM92.856 24.7229C92.7444 23.9394 92.4564 23.1914 92.0137 22.5354C91.5707 21.8503 90.9395 21.3075 90.1959 20.9721C89.4129 20.6303 88.5657 20.4609 87.7114 20.4752C87.0137 20.4487 86.3177 20.5652 85.6665 20.8174C85.0152 21.0695 84.4224 21.4521 83.9243 21.9416C82.9547 22.9232 82.47 24.323 82.47 26.1832C82.47 28.1344 83.0093 29.5523 84.0818 30.4249C85.1329 31.2826 86.4519 31.7436 87.8085 31.7277C88.544 31.771 89.2803 31.6554 89.9673 31.3888C90.6542 31.1222 91.2758 30.7108 91.7896 30.1825C92.24 29.7352 92.573 29.1837 92.759 28.5768H89.802C89.6957 28.7338 89.567 28.8746 89.4202 28.9949C88.9622 29.3205 88.4054 29.4769 87.8447 29.4372C87.3261 29.4682 86.8098 29.346 86.3602 29.0857C86 28.839 85.7094 28.5036 85.5163 28.1121C85.3231 27.7205 85.234 27.2857 85.2573 26.8498H92.959C92.9783 26.1433 92.9439 25.4363 92.856 24.735V24.7229ZM85.3119 25.2682C85.3751 24.6567 85.632 24.0814 86.0451 23.6261C86.2649 23.4174 86.5249 23.2561 86.8095 23.1518C87.094 23.0476 87.3968 23.0028 87.6993 23.0202C88.2983 23.0005 88.8833 23.2034 89.3415 23.5897C89.5704 23.8044 89.7535 24.0634 89.8795 24.3508C90.0055 24.6382 90.0719 24.9484 90.0747 25.2621L85.3119 25.2682ZM59.6316 17.0212V31.4368H56.9897V19.0512C56.9897 16.9243 59.6316 17.0333 59.6316 17.0333V17.0212ZM61.7949 20.7539H64.6066V31.4368H61.7828L61.7949 20.7539ZM61.7949 17.2758H64.6066V20.0691H61.7889L61.7949 17.2758Z" fill="#2D3277"/>
</svg>