<svg width="40" height="28" viewBox="0 0 40 28" fill="none" xmlns="http://www.w3.org/2000/svg">
<path d="M39.9946 12.9435C39.9359 5.77009 31.0509 2.34498e-06 20.1367 2.34498e-06H19.8775C16.3443 -0.00143957 12.8425 0.662097 9.5549 1.95597C4.02928 4.16131 0.264055 8.07323 0 12.5573C0 12.6844 0 12.8067 0 12.9289C0 13.0511 0 13.0414 0 13.0952V13.1539C0 13.1881 0 13.2272 0 13.2614V13.858C0 13.858 0 13.9069 0 13.9362V14.0243C0 14.1269 0 14.2296 0 14.3274C0 14.4252 0 14.5132 0 14.6013C0.215156 18.1758 2.15156 21.4178 5.50115 23.7894C9.14409 26.3664 14.083 27.7014 19.7943 27.7014H20.1024C25.9703 27.6524 31.0069 26.2099 34.6597 23.5302C38.1315 20.9777 40.0385 17.4765 39.9994 13.6722L39.9946 12.9435Z" fill="#2D3277"/>
<path d="M18.0295 18.523C18.2083 18.4483 18.3984 18.4038 18.5918 18.391C18.8034 18.3519 19.0211 18.3598 19.2294 18.4142C19.4377 18.4686 19.6313 18.5682 19.7968 18.7059C19.9622 18.8435 20.0954 19.0159 20.1868 19.2108C20.2781 19.4057 20.3255 19.6183 20.3255 19.8336C20.3255 20.0488 20.2781 20.2614 20.1868 20.4563C20.0954 20.6512 19.9622 20.8235 19.7968 20.9612C19.6313 21.0989 19.4377 21.1984 19.2294 21.2528C19.0211 21.3072 18.8034 21.3152 18.5918 21.2761C18.2222 21.2789 17.8659 21.1384 17.5977 20.8839C17.3296 20.6295 17.1706 20.281 17.1542 19.9118C17.1542 19.5841 16.9635 19.5352 16.8608 19.5352C16.809 19.5386 16.7584 19.5524 16.7122 19.576C16.666 19.5995 16.625 19.6322 16.5918 19.6722C16.4183 19.8583 16.1807 19.9718 15.9268 19.99C15.7685 19.9896 15.612 19.9563 15.4672 19.8922C15.2201 19.8267 15.0054 19.6733 14.8632 19.461C14.721 19.2485 14.6611 18.9916 14.6946 18.7382C14.7074 18.6881 14.708 18.6357 14.696 18.5855C14.6841 18.5352 14.6601 18.4886 14.6261 18.4497C14.5806 18.4091 14.5247 18.382 14.4647 18.3715C14.4184 18.3659 14.3715 18.3699 14.327 18.3834C14.2823 18.3969 14.241 18.4194 14.2056 18.4497C14.0027 18.6232 13.7555 18.7367 13.4916 18.7773C13.3634 18.7731 13.2366 18.75 13.1151 18.7089C12.7665 18.5991 12.4704 18.3652 12.2829 18.0514C12.0954 17.7378 12.0296 17.3662 12.098 17.0072C12.1126 16.9567 12.1114 16.9032 12.0949 16.8534C12.0783 16.8036 12.047 16.76 12.0051 16.7285C11.878 16.6502 11.7557 16.7676 11.6775 16.8458C11.5889 16.9327 11.4816 16.9983 11.3637 17.0372C11.246 17.0763 11.1207 17.0877 10.9978 17.0707C10.7036 17.0496 10.4274 16.9215 10.2211 16.7108C10.0148 16.5 9.89273 16.2211 9.87797 15.9265C9.87669 15.7826 9.90377 15.64 9.95764 15.5066C10.0115 15.3732 10.0911 15.2517 10.1919 15.1491C10.2927 15.0464 10.4127 14.9647 10.5451 14.9085C10.6776 14.8522 10.8197 14.8227 10.9635 14.8214C11.2157 14.7891 11.4706 14.8532 11.6774 15.0011C11.8843 15.1489 12.0275 15.3694 12.0785 15.6184C12.0785 15.6184 12.0785 15.6624 12.0785 15.6869C12.0785 15.7113 12.1078 15.9069 12.2202 15.9411C12.3327 15.9754 12.4256 15.8629 12.4794 15.7798C12.4896 15.7599 12.5028 15.7418 12.5185 15.726L12.5528 15.682C12.6893 15.4852 12.8775 15.3299 13.0967 15.2333C13.3159 15.1366 13.5574 15.1024 13.7948 15.1344C13.9602 15.1382 14.1245 15.1629 14.2838 15.2077C14.5156 15.2902 14.714 15.4461 14.8491 15.6518C14.9841 15.8575 15.0483 16.1015 15.0319 16.347C15.0306 16.4188 15.0576 16.4883 15.107 16.5404C15.1564 16.5925 15.2242 16.6232 15.296 16.6257C15.3402 16.6225 15.3833 16.6105 15.4228 16.5903C15.4622 16.5701 15.4973 16.5423 15.5259 16.5084C15.6294 16.3805 15.7578 16.2748 15.9031 16.1975C16.0484 16.1202 16.2078 16.0729 16.3718 16.0586C16.5861 16.0603 16.7976 16.107 16.9928 16.1954C18.0441 16.6355 17.5698 17.9802 17.5649 17.9949C17.5014 18.1514 17.3987 18.4155 17.6187 18.5573L17.6627 18.5817H17.7507C17.8317 18.5751 17.911 18.5553 17.9855 18.523H18.0295Z" fill="white"/>
<path d="M38.909 11.3935C36.1009 12.0487 33.3603 12.9655 30.7232 14.1318C28.8309 12.5084 24.4544 8.75297 23.2711 7.89725C22.7968 7.50718 22.2593 7.20121 21.6818 6.99259C21.424 6.91176 21.1549 6.87215 20.8848 6.87522C20.552 6.88602 20.2225 6.94532 19.9068 7.05126C19.0638 7.40502 18.288 7.90126 17.6134 8.51822L17.5694 8.55249C16.8995 9.09523 16.21 9.65273 15.7015 9.77007C15.4756 9.82416 15.2442 9.85208 15.012 9.85321C14.5761 9.88688 14.1431 9.75993 13.7944 9.4962C13.8082 9.46601 13.8263 9.43802 13.8482 9.41306L15.4961 7.60386C16.7724 6.308 17.9753 5.08552 20.7625 4.9975H20.8995C22.1701 5.03316 23.4214 5.31897 24.5815 5.83856C26.1847 6.61748 27.9433 7.02369 29.7257 7.02682C31.6351 6.98175 33.512 6.52296 35.2269 5.68209C37.1241 7.32021 38.4444 9.26636 38.909 11.3935Z" fill="white"/>
<path d="M19.8873 0.890013H20.1367C22.7717 0.882349 25.395 1.24112 27.9312 1.95601L28.0975 2.00491L28.4397 2.11249C30.5281 2.75401 32.5007 3.72464 34.2832 4.98775C32.834 5.63775 31.2696 5.99185 29.6817 6.0293H29.6182C28.0108 6.01836 26.4263 5.64566 24.9825 4.93886C23.6999 4.36571 22.3182 4.04686 20.9142 4H20.699C18.9981 3.98923 17.3491 4.5857 16.0487 5.68213C15.2653 5.73312 14.4916 5.88262 13.7455 6.1271C13.2355 6.30283 12.7044 6.40973 12.1661 6.44495H11.6184H11.5255C9.59839 6.1228 7.70582 5.62019 5.8728 4.94375C9.48158 2.38632 14.5671 0.919352 19.8873 0.890013Z" fill="#FFF159"/>
<path d="M4.96792 5.6283C7.50089 6.64051 10.4348 7.35933 11.3248 7.40822H11.5204C11.7258 7.40822 11.936 7.40822 12.1463 7.43267C12.7806 7.39856 13.4073 7.27848 14.0093 7.07571C14.2588 7.00236 14.4984 6.9339 14.7477 6.87033L14.7135 6.90945L13.0412 8.74809C12.8971 8.88102 12.7962 9.05419 12.7517 9.24514C12.7072 9.43609 12.7212 9.63605 12.7917 9.81898C12.8974 10.0443 13.0676 10.2332 13.2808 10.3617C13.8493 10.6837 14.4956 10.8427 15.1487 10.8214C15.3988 10.8219 15.6482 10.7941 15.892 10.7383C16.6205 10.5671 17.3589 9.96567 18.1658 9.32019C18.8001 8.76126 19.5264 8.31626 20.3125 8.00479C20.5024 7.95425 20.6978 7.92633 20.8943 7.92164H21.041C21.6394 8.01803 22.1985 8.2807 22.6547 8.67962C23.9799 9.65761 29.6424 14.5475 30.2976 15.0854C30.4056 15.1877 30.4909 15.3115 30.5482 15.4487C30.6055 15.586 30.6334 15.7337 30.6301 15.8824C30.6191 16.0241 30.5742 16.1611 30.4994 16.2819C30.4245 16.4027 30.3218 16.5038 30.1998 16.5768C29.9815 16.7252 29.7254 16.8084 29.4615 16.8164C29.2407 16.816 29.0241 16.7551 28.8355 16.6404L28.6791 16.5034C28.1559 16.0145 26.5667 14.6111 25.9114 14.0585C25.7955 13.9325 25.6369 13.854 25.4664 13.8384C25.4175 13.8379 25.3691 13.8486 25.3249 13.8698C25.2808 13.891 25.2423 13.9221 25.2121 13.9607C25.0655 14.1465 25.1437 14.4057 25.4029 14.6208L27.8869 17.0658C28.0474 17.2205 28.1537 17.4228 28.1901 17.6428C28.1993 17.8293 28.1549 18.0145 28.0621 18.1765C27.9694 18.3385 27.8323 18.4707 27.6669 18.5572C27.4329 18.7271 27.1539 18.8241 26.8649 18.8359C26.6502 18.8361 26.4399 18.775 26.2586 18.6599L25.8771 18.2932C25.2366 17.6721 24.5716 17.0316 24.0826 16.6306C23.9642 16.5115 23.8091 16.4357 23.6425 16.4154C23.5963 16.4145 23.5506 16.4237 23.5084 16.4423C23.4661 16.4609 23.4285 16.4884 23.398 16.523C23.3295 16.6012 23.2415 16.7773 23.4371 17.012C23.4774 17.0642 23.5215 17.1132 23.5691 17.1587L25.3784 19.1587C25.4666 19.2525 25.5194 19.3742 25.5274 19.5028C25.5354 19.6313 25.4983 19.7587 25.4224 19.8628L25.3686 19.9362C25.3148 19.9949 25.261 20.0437 25.2121 20.0878C24.9824 20.2594 24.7017 20.3489 24.4151 20.342C24.342 20.3498 24.2682 20.3498 24.1951 20.342C23.9896 20.3078 23.9309 20.2589 23.9114 20.2345L23.8527 20.1758C23.3397 19.6397 22.7977 19.132 22.2293 18.655C22.1171 18.5391 21.9688 18.465 21.8088 18.4447C21.7614 18.4462 21.7148 18.4574 21.6719 18.4776C21.629 18.4978 21.5907 18.5266 21.5594 18.5621C21.4078 18.7283 21.4763 18.9778 21.7305 19.2174L23.0948 20.7333C23.0606 20.787 22.909 20.9533 22.3858 21.0217C22.319 21.0266 22.252 21.0266 22.1853 21.0217C21.7202 20.9961 21.2662 20.8692 20.8552 20.6501C20.9726 20.3596 21.0325 20.049 21.0313 19.7357C21.0249 19.1056 20.7721 18.503 20.3271 18.0571C19.8819 17.6111 19.2799 17.357 18.6499 17.3494C18.676 16.9208 18.5693 16.4946 18.3445 16.1289C18.1196 15.7631 17.7874 15.4756 17.3932 15.3054C17.0843 15.1714 16.7519 15.1 16.4152 15.0952C16.1976 15.0947 15.9812 15.1293 15.7746 15.1979C15.5174 14.7659 15.1101 14.4438 14.6304 14.2933C14.355 14.192 14.063 14.1439 13.7697 14.1514C13.3242 14.1491 12.8882 14.2802 12.518 14.5279C12.3274 14.3163 12.0943 14.1472 11.834 14.0317C11.5736 13.9163 11.2917 13.8571 11.007 13.858C10.4994 13.8602 10.0111 14.0521 9.63779 14.3959C9.05586 13.9851 7.1097 12.8507 2.22468 11.7847C2.00464 11.7358 1.52543 11.6037 1.12445 11.4913C1.53521 9.3593 2.87504 7.33488 4.96792 5.6283Z" fill="white"/>
<path d="M39.0751 13.7309C39.0751 13.8906 39.0556 14.0537 39.0165 14.2199C38.5862 16.9925 36.7035 19.5988 33.5984 21.5988C30.0044 23.941 25.2074 25.2564 20.0974 25.3005H19.8383C9.4081 25.3005 0.924091 19.9216 0.8703 13.2468C0.8703 13.0366 0.8703 12.8018 0.899639 12.5427L1.96075 12.7871C6.77242 13.8141 8.5719 14.8996 9.02174 15.2321C8.94132 15.4564 8.9016 15.6932 8.9044 15.9313C8.90826 16.4748 9.1269 16.9947 9.51251 17.3776C9.89819 17.7605 10.4196 17.9754 10.9631 17.9754C11.0559 17.9826 11.1491 17.9826 11.2418 17.9754C11.339 18.3551 11.5287 18.7048 11.7941 18.9932C12.0595 19.2816 12.3922 19.4998 12.7625 19.6281C13.1138 19.7667 13.4976 19.8007 13.8677 19.7259C14.1233 20.2349 14.5671 20.6242 15.1048 20.8115C15.3666 20.914 15.6452 20.967 15.9263 20.968C16.0929 20.9569 16.2573 20.924 16.4153 20.8702C16.6102 21.2797 16.9171 21.6256 17.3005 21.8679C17.6839 22.1103 18.128 22.239 18.5816 22.2393C19.1985 22.2295 19.7889 21.9866 20.2343 21.5596C20.8234 21.879 21.4769 22.0612 22.1463 22.0926C22.2494 22.0922 22.3524 22.084 22.4543 22.0682C22.7226 22.0589 22.9856 21.9916 23.2254 21.8708C23.4651 21.7501 23.6758 21.5789 23.8431 21.3689L23.8871 21.3054C24.0693 21.3518 24.2565 21.3765 24.4446 21.3788C24.9244 21.3626 25.3861 21.191 25.76 20.8897C26.1249 20.6348 26.3936 20.2644 26.5228 19.8384H26.8406C27.3224 19.8275 27.7902 19.6743 28.1854 19.3984C28.4697 19.2319 28.7081 18.9972 28.8789 18.7154C29.0496 18.4337 29.1474 18.1137 29.1633 17.7846C29.2643 17.792 29.3656 17.792 29.4665 17.7846C29.9171 17.7765 30.3554 17.6371 30.7281 17.3837C30.98 17.2258 31.191 17.0106 31.3439 16.7557C31.4969 16.5007 31.5875 16.2132 31.6083 15.9167C31.631 15.5544 31.5549 15.1927 31.3882 14.8703C33.8666 13.8529 36.4224 13.0353 39.0312 12.4253C39.0312 12.6405 39.0703 12.8508 39.0703 13.0708C39.0703 13.2909 39.0898 13.5255 39.0751 13.7309Z" fill="#FFF159"/>
</svg>